<svg width="72" height="176" viewBox="0 0 72 176" fill="none" xmlns="http://www.w3.org/2000/svg">
<path fill-rule="evenodd" clip-rule="evenodd" d="M27 43.7143V28.2857C27 27.5756 27.5756 27 28.2857 27H43.7143C44.4244 27 45 27.5756 45 28.2857V43.7143C45 44.4244 44.4244 45 43.7143 45H28.2857C27.5756 45 27 44.4244 27 43.7143ZM37.2857 30.0714C37.2857 29.7953 37.5096 29.5714 37.7857 29.5714H41.9286C42.2047 29.5714 42.4286 29.7953 42.4286 30.0714V34.2143C42.4286 34.4904 42.2047 34.7143 41.9286 34.7143H37.7857C37.5096 34.7143 37.2857 34.4904 37.2857 34.2143V30.0714ZM37.2857 37.7857C37.2857 37.5096 37.5096 37.2857 37.7857 37.2857H41.9286C42.2047 37.2857 42.4286 37.5096 42.4286 37.7857V41.9286C42.4286 42.2047 42.2047 42.4286 41.9286 42.4286H37.7857C37.5096 42.4286 37.2857 42.2047 37.2857 41.9286V37.7857ZM34.7143 30.0714C34.7143 29.7953 34.4904 29.5714 34.2143 29.5714H30.0714C29.7953 29.5714 29.5714 29.7953 29.5714 30.0714V34.2143C29.5714 34.4904 29.7953 34.7143 30.0714 34.7143L34.2143 34.7143C34.4904 34.7143 34.7143 34.4904 34.7143 34.2143V30.0714ZM34.7143 41.9286C34.7143 42.2047 34.4904 42.4286 34.2143 42.4286L30.0714 42.4286C29.7953 42.4286 29.5714 42.2047 29.5714 41.9286V37.7857C29.5714 37.5096 29.7953 37.2857 30.0714 37.2857L34.2143 37.2857C34.4904 37.2857 34.7143 37.5096 34.7143 37.7857V41.9286Z" fill="#74A2B2"/>
<g filter="url(#filter0_d_20531_812)">
<path fill-rule="evenodd" clip-rule="evenodd" d="M27 95.7143V80.2857C27 79.5756 27.5756 79 28.2857 79H43.7143C44.4244 79 45 79.5756 45 80.2857V95.7143C45 96.4244 44.4244 97 43.7143 97H28.2857C27.5756 97 27 96.4244 27 95.7143ZM37.2857 82.0714C37.2857 81.7953 37.5096 81.5714 37.7857 81.5714H41.9286C42.2047 81.5714 42.4286 81.7953 42.4286 82.0714V86.2143C42.4286 86.4904 42.2047 86.7143 41.9286 86.7143H37.7857C37.5096 86.7143 37.2857 86.4904 37.2857 86.2143V82.0714ZM37.2857 89.7857C37.2857 89.5096 37.5096 89.2857 37.7857 89.2857H41.9286C42.2047 89.2857 42.4286 89.5096 42.4286 89.7857V93.9286C42.4286 94.2047 42.2047 94.4286 41.9286 94.4286H37.7857C37.5096 94.4286 37.2857 94.2047 37.2857 93.9286V89.7857ZM34.7143 82.0714C34.7143 81.7953 34.4904 81.5714 34.2143 81.5714H30.0714C29.7953 81.5714 29.5714 81.7953 29.5714 82.0714V86.2143C29.5714 86.4904 29.7953 86.7143 30.0714 86.7143L34.2143 86.7143C34.4904 86.7143 34.7143 86.4904 34.7143 86.2143V82.0714ZM34.7143 93.9286C34.7143 94.2047 34.4904 94.4286 34.2143 94.4286L30.0714 94.4286C29.7953 94.4286 29.5714 94.2047 29.5714 93.9286V89.7857C29.5714 89.5096 29.7953 89.2857 30.0714 89.2857L34.2143 89.2857C34.4904 89.2857 34.7143 89.5096 34.7143 89.7857V93.9286Z" fill="#5ED3F3"/>
</g>
<path fill-rule="evenodd" clip-rule="evenodd" d="M27 147.714V132.286C27 131.576 27.5756 131 28.2857 131H43.7143C44.4244 131 45 131.576 45 132.286V147.714C45 148.424 44.4244 149 43.7143 149H28.2857C27.5756 149 27 148.424 27 147.714ZM37.2857 134.071C37.2857 133.795 37.5096 133.571 37.7857 133.571H41.9286C42.2047 133.571 42.4286 133.795 42.4286 134.071V138.214C42.4286 138.49 42.2047 138.714 41.9286 138.714H37.7857C37.5096 138.714 37.2857 138.49 37.2857 138.214V134.071ZM37.2857 141.786C37.2857 141.51 37.5096 141.286 37.7857 141.286H41.9286C42.2047 141.286 42.4286 141.51 42.4286 141.786V145.929C42.4286 146.205 42.2047 146.429 41.9286 146.429H37.7857C37.5096 146.429 37.2857 146.205 37.2857 145.929V141.786ZM34.7143 134.071C34.7143 133.795 34.4904 133.571 34.2143 133.571H30.0714C29.7953 133.571 29.5714 133.795 29.5714 134.071V138.214C29.5714 138.49 29.7953 138.714 30.0714 138.714L34.2143 138.714C34.4904 138.714 34.7143 138.49 34.7143 138.214V134.071ZM34.7143 145.929C34.7143 146.205 34.4904 146.429 34.2143 146.429L30.0714 146.429C29.7953 146.429 29.5714 146.205 29.5714 145.929V141.786C29.5714 141.51 29.7953 141.286 30.0714 141.286L34.2143 141.286C34.4904 141.286 34.7143 141.51 34.7143 141.786V145.929Z" fill="#151C1F"/>
<rect x="0.5" y="0.5" width="71" height="175" rx="4.5" stroke="#9747FF" stroke-dasharray="10 5"/>
<defs>
<filter id="filter0_d_20531_812" x="10" y="65" width="52" height="52" filterUnits="userSpaceOnUse" color-interpolation-filters="sRGB">
<feFlood flood-opacity="0" result="BackgroundImageFix"/>
<feColorMatrix in="SourceAlpha" type="matrix" values="0 0 0 0 0 0 0 0 0 0 0 0 0 0 0 0 0 0 127 0" result="hardAlpha"/>
<feOffset dy="3"/>
<feGaussianBlur stdDeviation="5"/>
<feComposite in2="hardAlpha" operator="out"/>
<feColorMatrix type="matrix" values="0 0 0 0 0.0627451 0 0 0 0 0.215686 0 0 0 0 0.639216 0 0 0 0.6 0"/>
<feBlend mode="normal" in2="BackgroundImageFix" result="effect1_dropShadow_20531_812"/>
<feBlend mode="normal" in="SourceGraphic" in2="effect1_dropShadow_20531_812" result="shape"/>
</filter>
</defs>
</svg>
