<svg width="72" height="176" viewBox="0 0 72 176"  xmlns="http://www.w3.org/2000/svg">
<path d="M28.2857 28C27.5756 28 27 28.5117 27 29.1429C27 29.774 27.5756 30.2857 28.2857 30.2857H43.7143C44.4244 30.2857 45 29.774 45 29.1429C45 28.5117 44.4244 28 43.7143 28H28.2857Z" />
<path d="M28.2857 37.1429C27.5756 37.1429 27 36.6312 27 36C27 35.3688 27.5756 34.8571 28.2857 34.8571H43.7143C44.4244 34.8571 45 35.3688 45 36C45 36.6312 44.4244 37.1429 43.7143 37.1429H28.2857Z" />
<path d="M28.2857 44C27.5756 44 27 43.4883 27 42.8571C27 42.226 27.5756 41.7143 28.2857 41.7143H43.7143C44.4244 41.7143 45 42.226 45 42.8571C45 43.4883 44.4244 44 43.7143 44H28.2857Z" />
<g filter="url(#filter0_d_20531_819)">
<path d="M28.2857 80C27.5756 80 27 80.5117 27 81.1429C27 81.774 27.5756 82.2857 28.2857 82.2857H43.7143C44.4244 82.2857 45 81.774 45 81.1429C45 80.5117 44.4244 80 43.7143 80H28.2857Z" />
<path d="M28.2857 89.1429C27.5756 89.1429 27 88.6312 27 88C27 87.3688 27.5756 86.8571 28.2857 86.8571H43.7143C44.4244 86.8571 45 87.3688 45 88C45 88.6312 44.4244 89.1429 43.7143 89.1429H28.2857Z" />
<path d="M28.2857 96C27.5756 96 27 95.4883 27 94.8571C27 94.226 27.5756 93.7143 28.2857 93.7143H43.7143C44.4244 93.7143 45 94.226 45 94.8571C45 95.4883 44.4244 96 43.7143 96H28.2857Z" />
</g>
<path d="M28.2857 132C27.5756 132 27 132.512 27 133.143C27 133.774 27.5756 134.286 28.2857 134.286H43.7143C44.4244 134.286 45 133.774 45 133.143C45 132.512 44.4244 132 43.7143 132H28.2857Z" />
<path d="M28.2857 141.143C27.5756 141.143 27 140.631 27 140C27 139.369 27.5756 138.857 28.2857 138.857H43.7143C44.4244 138.857 45 139.369 45 140C45 140.631 44.4244 141.143 43.7143 141.143H28.2857Z" />
<path d="M28.2857 148C27.5756 148 27 147.488 27 146.857C27 146.226 27.5756 145.714 28.2857 145.714H43.7143C44.4244 145.714 45 146.226 45 146.857C45 147.488 44.4244 148 43.7143 148H28.2857Z" />
<rect x="0.5" y="0.5" width="71" height="175" rx="4.5" stroke-dasharray="10 5"/>
<defs>
<filter id="filter0_d_20531_819" x="10" y="65" width="52" height="52" filterUnits="userSpaceOnUse" color-interpolation-filters="sRGB">
<feFlood flood-opacity="0" result="BackgroundImageFix"/>
<feColorMatrix in="SourceAlpha" type="matrix" values="0 0 0 0 0 0 0 0 0 0 0 0 0 0 0 0 0 0 127 0" result="hardAlpha"/>
<feOffset dy="3"/>
<feGaussianBlur stdDeviation="5"/>
<feComposite in2="hardAlpha" operator="out"/>
<feColorMatrix type="matrix" values="0 0 0 0 0.0627451 0 0 0 0 0.215686 0 0 0 0 0.639216 0 0 0 0.6 0"/>
<feBlend mode="normal" in2="BackgroundImageFix" result="effect1_dropShadow_20531_819"/>
<feBlend mode="normal" in="SourceGraphic" in2="effect1_dropShadow_20531_819" result="shape"/>
</filter>
</defs>
</svg>
